<svg xmlns="http://www.w3.org/2000/svg" width="360" height="120" viewBox="0 0 360 120"><defs>
  <linearGradient id="gTop" x1="0" y1="0" x2="1" y2="1"><stop offset="0" stop-color="#2CC7B5"/><stop offset="1" stop-color="#62E0CE"/></linearGradient>
  <linearGradient id="gMid" x1="0" y1="0" x2="1" y2="1"><stop offset="0" stop-color="#2C89E8"/><stop offset="1" stop-color="#1767BF"/></linearGradient>
  <linearGradient id="gBot" x1="0" y1="0" x2="1" y2="1"><stop offset="0" stop-color="#66B6FF"/><stop offset="1" stop-color="#2C89E8"/></linearGradient>
  <linearGradient id="gBg" x1="0" y1="0" x2="1" y2="1"><stop offset="0" stop-color="#0A4A68"/><stop offset="1" stop-color="#061F35"/></linearGradient>
</defs><g transform="translate(0 0) scale(0.6)">
  <rect x="22" y="22" width="156" height="44" rx="22" fill="url(#gTop)"/>
  <path d="M74 79 H151 Q166 79 158 91 L140 117 Q136 123 126 123 H54 Q42 123 49 112 L66 86 Q70 79 74 79Z" fill="url(#gMid)"/>
  <rect x="22" y="136" width="78" height="42" rx="21" fill="url(#gBot)"/>
</g><g transform="translate(128 41) scale(0.82)" fill="none" stroke="#0B2B50" stroke-width="20" stroke-linecap="round" stroke-linejoin="round">
  <path d="M24 90 V37 Q24 18 42 18 H55 M18 49 H54"/>
  <path d="M82 18 V90"/>
  <circle cx="132" cy="61" r="31"/>
  <path d="M181 40 H229 L182 85 H230"/>
</g></svg>